<svg xmlns="http://www.w3.org/2000/svg" version="1.1" xmlns:xlink="http://www.w3.org/1999/xlink" width="200" height="200"><svg xmlns="http://www.w3.org/2000/svg" version="1.1" xmlns:xlink="http://www.w3.org/1999/xlink" viewBox="0 0 200 200"><rect width="200" height="200" fill="url('#gradient')"></rect><defs><linearGradient id="SvgjsLinearGradient1001" gradientTransform="rotate(45 0.5 0.5)"><stop offset="0%" stop-color="#414141"></stop><stop offset="100%" stop-color="#000000"></stop></linearGradient></defs><g><g fill="#9cb3c2" transform="matrix(2.7402357438674736,0,0,2.7402357438674736,55.80206787594187,119.48733335393521)" stroke="#778ca7" stroke-width="0"><path d="M12.71-7.60L12.71-1.76Q11.92-0.88 10.40-0.34Q8.88 0.20 7.06 0.20L7.06 0.20Q4.27 0.20 2.60-1.51Q0.93-3.22 0.81-6.27L0.81-6.27L0.80-7.50Q0.80-9.60 1.54-11.17Q2.29-12.73 3.67-13.58Q5.05-14.42 6.87-14.42L6.87-14.42Q9.52-14.42 10.99-13.21Q12.46-11.99 12.71-9.58L12.71-9.58L9.40-9.58Q9.23-10.77 8.64-11.28Q8.06-11.79 6.98-11.79L6.98-11.79Q5.69-11.79 4.99-10.69Q4.29-9.60 4.28-7.57L4.28-7.57L4.28-6.71Q4.28-4.58 5.00-3.51Q5.73-2.44 7.29-2.44L7.29-2.44Q8.63-2.44 9.29-3.04L9.29-3.04L9.29-5.24L6.90-5.24L6.90-7.60L12.71-7.60ZM22.50 0L19.99-5.02L18.13-5.02L18.13 0L14.71 0L14.71-14.22L20.30-14.22Q22.83-14.22 24.26-13.10Q25.68-11.97 25.68-9.92L25.68-9.92Q25.68-8.44 25.08-7.46Q24.48-6.48 23.20-5.88L23.20-5.88L26.17-0.15L26.17 0L22.50 0ZM18.13-11.57L18.13-7.67L20.30-7.67Q21.28-7.67 21.77-8.18Q22.27-8.69 22.27-9.61Q22.27-10.53 21.77-11.05Q21.27-11.57 20.30-11.57L20.30-11.57L18.13-11.57ZM29.64-3.19L29.64-3.19Q30.42-3.19 30.94-2.73Q31.46-2.27 31.46-1.54Q31.46-0.82 30.94-0.36Q30.42 0.11 29.64 0.11L29.64 0.11Q28.85 0.11 28.33-0.36Q27.82-0.83 27.82-1.54Q27.82-2.26 28.33-2.72Q28.85-3.19 29.64-3.19Z"></path></g></g></svg><style>@media (prefers-color-scheme: light) { :root { filter: none; } }
@media (prefers-color-scheme: dark) { :root { filter: none; } }
</style></svg>